<svg width="70" height="70" viewBox="0 0 140 140" fill="none" xmlns="http://www.w3.org/2000/svg"><rect width="140" height="140" fill="#36393F"></rect><circle cx="37.5" cy="111.5" r="24.5" fill="#44474F"></circle><circle cx="105.5" cy="42.5" r="24.5" fill="#44474F"></circle><path d="M80 135.99C93.3002 135.724 104 124.859 104 111.495C104 98.1311 93.3002 87.2663 80 87V135.99Z" fill="#44474F"></path><path d="M130 135.99C116.7 135.724 106 124.859 106 111.495C106 98.1311 116.7 87.2663 130 87V135.99Z" fill="#44474F"></path><path d="M14 66.99C27.3002 66.7237 38 55.8589 38 42.495C38 29.1311 27.3002 18.2663 14 18V66.99Z" fill="#44474F"></path><path d="M64 66.99C50.6998 66.7237 40 55.8589 40 42.495C40 29.1311 50.6998 18.2663 64 18V66.99Z" fill="#44474F"></path></svg>