<?xml version="1.0" standalone="no"?>
<!DOCTYPE svg PUBLIC "-//W3C//DTD SVG 20010904//EN"
 "http://www.w3.org/TR/2001/REC-SVG-20010904/DTD/svg10.dtd">
<svg version="1.0"   className="h-8"
                  viewBox="0 0 28 24"
                  fill="none" xmlns="http://www.w3.org/2000/svg"
 width="630.000000pt" height="396.000000pt" viewBox="0 0 630.000000 396.000000"
 preserveAspectRatio="xMidYMid meet">

<g transform="translate(0.000000,396.000000) scale(0.100000,-0.100000)"
fill="#000000" stroke="none">
<path d="M2996 2948 c27 -76 36 -170 24 -240 -25 -141 -89 -235 -320 -472
-182 -185 -223 -232 -280 -316 -144 -212 -221 -534 -190 -795 35 -300 159
-558 369 -765 140 -139 311 -228 446 -233 l50 -2 3 127 3 126 -54 12 c-140 29
-278 135 -340 263 -48 98 -57 152 -57 337 0 155 1 160 23 174 30 20 63 10 76
-22 5 -15 11 -103 13 -197 3 -168 4 -171 35 -236 39 -79 110 -150 191 -187 50
-24 69 -27 162 -27 93 0 111 3 163 27 71 34 155 111 193 180 28 52 29 56 34
243 3 105 9 197 14 207 11 24 47 30 74 12 l24 -16 -4 -196 c-4 -176 -6 -203
-26 -251 -41 -97 -105 -176 -190 -234 -50 -34 -148 -77 -177 -77 -43 0 -45 -7
-45 -137 l0 -126 38 6 c105 17 424 220 568 361 189 186 257 349 257 616 0 188
-40 366 -123 547 -43 92 -147 257 -185 293 l-25 23 0 -32 c0 -63 -49 -185
-103 -256 -29 -38 -63 -75 -76 -84 l-24 -16 7 40 c40 236 46 357 21 496 -55
317 -195 569 -420 758 -74 62 -144 111 -158 111 -3 0 1 -19 9 -42z m276 -1175
c58 -26 114 -83 144 -147 l24 -51 0 -401 0 -400 -26 -52 c-108 -216 -415 -216
-523 0 -28 56 -31 70 -31 160 l0 98 145 0 145 0 0 35 0 35 -145 0 -145 0 0 50
0 50 145 0 145 0 0 35 0 35 -145 0 -145 0 0 50 0 50 145 0 145 0 0 35 0 35
-145 0 -145 0 0 90 c0 121 31 191 116 263 67 56 204 70 296 30z"/>
</g>
</svg>
